#!OML:ASF H:\Dans Jumps\Project 1\Capture day 1\Session 1\subject.ASF
:FULLY-SPECIFIED
:DEGREES
82
root 0.458399 17.5222 -14.3023 6.66592 -0.446851 -1.79027
lowerback -1.84637 -0.619027 0.731834
upperback 5.12476 -0.962601 1.72072
thorax 6.37432 -0.489176 1.31015
lowerneck -10.995 0.511408 -2.31007
upperneck 36.5662 0.948873 1.09348
head 14.3616 0.228056 1.0003
rclavicle 2.48481e-015 -4.57205e-015
rhumerus -18.8044 -17.9233 -82.7701
rradius 25.5197
rwrist 32.4356
rhand -18.1255 -26.8202
rfingers 7.12502
rthumb 8.1492 -56.6431
lclavicle 2.48481e-015 -4.57205e-015
lhumerus -15.8332 1.40179 87.956
lradius 17.8339
lwrist -1.67883
lhand -23.4796 -3.56608
lfingers 7.12502
lthumb 2.97991 26.3928
rfemur -14.0472 -2.34896 19.0179
rtibia 21.2944
rfoot -13.1296 -2.1393
rtoes 5.05497
lfemur -13.8931 8.09117 -17.4441
ltibia 19.481
lfoot -10.4493 5.24643
ltoes -14.286
83
root 0.460506 17.5218 -14.3005 6.65604 -0.460562 -1.80118
lowerback -1.85182 -0.617211 0.727568
upperback 5.12949 -0.960215 1.72153
thorax 6.38253 -0.488247 1.31351
lowerneck -10.9882 0.509348 -2.31027
upperneck 36.5703 0.945465 1.09364
head 14.3621 0.226464 0.999871
rclavicle 3.18055e-015 2.5842e-015
rhumerus -18.7929 -17.9112 -82.737
rradius 25.547
rwrist 32.4253
rhand -18.1493 -26.8259
rfingers 7.12502
rthumb 8.12625 -56.6497
lclavicle 3.18055e-015 2.5842e-015
lhumerus -15.8442 1.41373 87.9567
lradius 17.8093
lwrist -1.6966
lhand -23.4675 -3.56195
lfingers 7.12502
lthumb 2.99164 26.3968
rfemur -14.0328 -2.33642 19.0219
rtibia 21.2958
rfoot -13.1277 -2.14342
rtoes 5.03084
lfemur -13.886 8.09138 -17.4386
ltibia 19.5043
lfoot -10.4432 5.25373
ltoes -14.2235
84
root 0.462462 17.5214 -14.2988 6.64712 -0.475471 -1.81118
lowerback -1.85817 -0.616514 0.719556
upperback 5.1346 -0.959237 1.72368
thorax 6.39179 -0.488246 1.32026
lowerneck -10.9856 0.509376 -2.30864
upperneck 36.5781 0.946998 1.0877
head 14.3652 0.226377 0.997432
rclavicle -7.15625e-015 4.17448e-015
rhumerus -18.7772 -17.8942 -82.7051
rradius 25.571
rwrist 32.4122
rhand -18.1839 -26.8202
rfingers 7.12502
rthumb 8.0929 -56.6453
lclavicle -7.15625e-015 4.17448e-015
lhumerus -15.8538 1.42956 87.9585
lradius 17.7863
lwrist -1.71578
lhand -23.4645 -3.56939
lfingers 7.12502
lthumb 2.99451 26.3893
rfemur -14.0201 -2.32286 19.0255
rtibia 21.2975
rfoot -13.1252 -2.14779
rtoes 5.00452
lfemur -13.8784 8.09016 -17.4335
ltibia 19.5259
lfoot -10.439 5.2588
ltoes -14.1457
85
root 0.464311 17.5211 -14.2972 6.6391 -0.490613 -1.81977
lowerback -1.86384 -0.616569 0.709778
upperback 5.13826 -0.959087 1.72505
thorax 6.39914 -0.488719 1.32715
lowerneck -10.9844 0.512005 -2.30203
upperneck 36.589 0.952756 1.07722
head 14.37 0.228138 0.992924
rclavicle 3.27995e-015 5.96354e-016
rhumerus -18.7604 -17.8762 -82.6748
rradius 25.5908
rwrist 32.3989
rhand -18.2185 -26.8053
rfingers 7.12502
rthumb 8.05942 -56.6316
lclavicle 3.27995e-015 5.96354e-016
lhumerus -15.8637 1.44631 87.9594
lradius 17.7622
lwrist -1.73448
lhand -23.4679 -3.58367
lfingers 7.12502
lthumb 2.9912 26.3751
rfemur -14.0092 -2.31021 19.0281
rtibia 21.3
rfoot -13.122 -2.15157
rtoes 4.97177
lfemur -13.8703 8.08992 -17.4294
ltibia 19.5449
lfoot -10.4364 5.25988
ltoes -14.0612
86
root 0.46607 17.5208 -14.2957 6.63127 -0.504539 -1.82797
lowerback -1.86852 -0.618488 0.699012
upperback 5.14266 -0.961398 1.72682
thorax 6.40678 -0.490474 1.33481
lowerneck -10.9883 0.516302 -2.29765
upperneck 36.6014 0.961644 1.06697
head 14.3766 0.230925 0.989426
rclavicle 2.48481e-015 9.14409e-015
rhumerus -18.7356 -17.8555 -82.6476
rradius 25.6049
rwrist 32.383
rhand -18.2398 -26.7895
rfingers 7.12502
rthumb 8.03888 -56.6166
lclavicle 2.48481e-015 9.14409e-015
lhumerus -15.8725 1.46886 87.961
lradius 17.7413
lwrist -1.75229
lhand -23.485 -3.60248
lfingers 7.12502
lthumb 2.9747 26.3565
rfemur -13.9996 -2.29891 19.0309
rtibia 21.3043
rfoot -13.1191 -2.15539
rtoes 4.94136
lfemur -13.8611 8.09045 -17.4256
ltibia 19.5597
lfoot -10.4331 5.25734
ltoes -13.9769
87
root 0.467784 17.5205 -14.2942 6.62313 -0.517152 -1.83259
lowerback -1.87123 -0.622152 0.684936
upperback 5.14681 -0.965736 1.72686
thorax 6.41308 -0.49335 1.3424
lowerneck -10.9955 0.521399 -2.29306
upperneck 36.616 0.971753 1.05668
head 14.385 0.234208 0.986106
rclavicle -7.95139e-015 1.33186e-014
rhumerus -18.7033 -17.8423 -82.6239
rradius 25.61
rwrist 32.3802
rhand -18.2446 -26.7744
rfingers 7.12502
rthumb 8.0343 -56.6017
lclavicle -7.95139e-015 1.33186e-014
lhumerus -15.8817 1.50051 87.9611
lradius 17.7237
lwrist -1.76813
lhand -23.4976 -3.61349
lfingers 7.12502
lthumb 2.96258 26.3457
rfemur -13.99 -2.29356 19.03
rtibia 21.31
rfoot -13.1175 -2.1531
rtoes 4.91886
lfemur -13.8497 8.09303 -17.4258
ltibia 19.5698
lfoot -10.4297 5.25076
ltoes -13.8977
88
root 0.469485 17.5203 -14.2928 6.61488 -0.526719 -1.83513
lowerback -1.87254 -0.627121 0.670742
upperback 5.15049 -0.971661 1.72486
thorax 6.41806 -0.496957 1.34782
lowerneck -11.0046 0.526254 -2.28775
upperneck 36.6315 0.980726 1.04811
head 14.3943 0.237304 0.983214
rclavicle 3.37934e-015 -6.95746e-015
rhumerus -18.6704 -17.8248 -82.605
rradius 25.6188
rwrist 32.379
rhand -18.2275 -26.7728
rfingers 7.12502
rthumb 8.05075 -56.5995
lclavicle 3.37934e-015 -6.95746e-015
lhumerus -15.8922 1.53803 87.9603
lradius 17.7103
lwrist -1.78209
lhand -23.5102 -3.61832
lfingers 7.12502
lthumb 2.95036 26.341
rfemur -13.9805 -2.29718 19.027
rtibia 21.3169
rfoot -13.1186 -2.14459
rtoes 4.90713
lfemur -13.8371 8.09675 -17.4283
ltibia 19.5753
lfoot -10.4253 5.23992
ltoes -13.8256
89
root 0.471165 17.52 -14.2914 6.60697 -0.535552 -1.8363
lowerback -1.87448 -0.632996 0.655273
upperback 5.15316 -0.978664 1.72183
thorax 6.42235 -0.50113 1.3528
lowerneck -11.0055 0.530561 -2.28577
upperneck 36.6426 0.988602 1.04198
head 14.3996 0.239841 0.981626
rclavicle -4.27387e-015 -9.14409e-015
rhumerus -18.6354 -17.8155 -82.5885
rradius 25.6236
rwrist 32.3929
rhand -18.2044 -26.7838
rfingers 7.12502
rthumb 8.07303 -56.6096
lclavicle -4.27387e-015 -9.14409e-015
lhumerus -15.9071 1.57996 87.9594
lradius 17.7001
lwrist -1.79841
lhand -23.5218 -3.625
lfingers 7.12502
lthumb 2.93916 26.3345
rfemur -13.9711 -2.30615 19.0227
rtibia 21.3237
rfoot -13.1213 -2.13129
rtoes 4.90388
lfemur -13.8236 8.09982 -17.4324
ltibia 19.5773
lfoot -10.4206 5.228
ltoes -13.7542
90
root 0.47283 17.5198 -14.29 6.59875 -0.54155 -1.83687
lowerback -1.87581 -0.639633 0.639977
upperback 5.15512 -0.986642 1.71835
thorax 6.42555 -0.50576 1.35713
lowerneck -11.0056 0.533517 -2.28516
upperneck 36.6534 0.994253 1.03739
head 14.4046 0.241441 0.98057
rclavicle 5.36719e-015 -1.15295e-014
rhumerus -18.6001 -17.8108 -82.5733
rradius 25.6255
rwrist 32.4169
rhand -18.1901 -26.7953
rfingers 7.12502
rthumb 8.0869 -56.6206
lclavicle 5.36719e-015 -1.15295e-014
lhumerus -15.9261 1.62221 87.9602
lradius 17.695
lwrist -1.81709
lhand -23.5323 -3.6239
lfingers 7.12502
lthumb 2.92906 26.3357
rfemur -13.9603 -2.32001 19.018
rtibia 21.3288
rfoot -13.1262 -2.11564
rtoes 4.91042
lfemur -13.8095 8.10002 -17.4369
ltibia 19.5782
lfoot -10.4171 5.21536
ltoes -13.6849
91
root 0.474461 17.5197 -14.2886 6.59185 -0.544342 -1.83741
lowerback -1.87856 -0.646469 0.625524
upperback 5.15613 -0.994902 1.71434
thorax 6.42854 -0.510468 1.36041
lowerneck -11.0066 0.535256 -2.28393
upperneck 36.6642 0.997763 1.03339
head 14.4099 0.242292 0.979335
rclavicle 5.61567e-015 -1.21259e-014
rhumerus -18.5669 -17.8068 -82.5595
rradius 25.6286
rwrist 32.4398
rhand -18.1907 -26.805
rfingers 7.12502
rthumb 8.08627 -56.6303
lclavicle 5.61567e-015 -1.21259e-014
lhumerus -15.9487 1.65488 87.963
lradius 17.6923
lwrist -1.84155
lhand -23.548 -3.63569
lfingers 7.12502
lthumb 2.91387 26.3242
rfemur -13.9496 -2.33701 19.0137
rtibia 21.3303
rfoot -13.1295 -2.10177
rtoes 4.90704
lfemur -13.7974 8.0961 -17.4413
ltibia 19.58
lfoot -10.4156 5.20373
ltoes -13.6134
92
root 0.475995 17.5195 -14.2874 6.58753 -0.544206 -1.83964
lowerback -1.88345 -0.653592 0.612544
upperback 5.15615 -1.00367 1.71097
thorax 6.43172 -0.515369 1.36347
lowerneck -11.0107 0.535396 -2.28529
upperneck 36.6757 0.99933 1.03043
head 14.4163 0.24209 0.97873
rclavicle 4.02539e-015 6.55989e-015
rhumerus -18.5362 -17.7997 -82.547
rradius 25.6325
rwrist 32.4561
rhand -18.2056 -26.816
rfingers 7.12502
rthumb 8.07194 -56.6419
lclavicle 4.02539e-015 6.55989e-015
lhumerus -15.9716 1.67552 87.9683
lradius 17.6897
lwrist -1.86996
lhand -23.5723 -3.66347
lfingers 7.12502
lthumb 2.89045 26.2967
rfemur -13.9403 -2.35333 19.0118
rtibia 21.3284
rfoot -13.1315 -2.09152
rtoes 4.8972
lfemur -13.7895 8.09016 -17.4437
ltibia 19.5836
lfoot -10.417 5.19123
ltoes -13.5389
93
root 0.4775 17.5195 -14.2861 6.58512 -0.542888 -1.84283
lowerback -1.8899 -0.66006 0.602115
upperback 5.15511 -1.01167 1.70707
thorax 6.43461 -0.519739 1.36459
lowerneck -11.0181 0.534631 -2.28607
upperneck 36.6882 0.999403 1.02785
head 14.4238 0.241374 0.977998
rclavicle 2.08724e-015 3.37934e-015
rhumerus -18.5083 -17.7915 -82.5356
rradius 25.6365
rwrist 32.4657
rhand -18.229 -26.8216
rfingers 7.12502
rthumb 8.04936 -56.6483
lclavicle 2.08724e-015 3.37934e-015
lhumerus -15.9935 1.67496 87.9762
lradius 17.6868
lwrist -1.89691
lhand -23.6058 -3.70621
lfingers 7.12502
lthumb 2.8581 26.2544
rfemur -13.9313 -2.3695 19.0112
rtibia 21.323
rfoot -13.1319 -2.08351
rtoes 4.86893
lfemur -13.7841 8.08258 -17.4451
ltibia 19.5892
lfoot -10.4221 5.18094
ltoes -13.4692
94
root 0.4789 17.5195 -14.285 6.58523 -0.540699 -1.84692
lowerback -1.89887 -0.665877 0.594023
upperback 5.15419 -1.01891 1.70228
thorax 6.439 -0.523589 1.36351
lowerneck -11.0302 0.532639 -2.28719
upperneck 36.6993 0.997514 1.02639
head 14.4319 0.239933 0.977513
rclavicle 3.67752e-015 -5.1684e-015
rhumerus -18.4812 -17.7784 -82.5275
rradius 25.6437
rwrist 32.4617
rhand -18.2419 -26.8387
rfingers 7.12502
rthumb 8.03689 -56.6659
lclavicle 3.67752e-015 -5.1684e-015
lhumerus -16.0085 1.65117 87.9858
lradius 17.6829
lwrist -1.91385
lhand -23.6437 -3.75412
lfingers 7.12502
lthumb 2.82143 26.207
rfemur -13.9241 -2.38245 19.0121
rtibia 21.3155
rfoot -13.1304 -2.07961
rtoes 4.83218
lfemur -13.7827 8.07467 -17.4452
ltibia 19.5959
lfoot -10.4285 5.17143
ltoes -13.4057
